<svg xmlns="http://www.w3.org/2000/svg" width="211.195" height="64.477" viewBox="0 0 211.195 64.477">
  <g id="Group_862" data-name="Group 862" transform="translate(-28.449 -23.723)">
    <rect id="Rectangle_612" data-name="Rectangle 612" width="6.833" height="6.833" transform="translate(174.942 36.969) rotate(-16.659)" fill="#5f5f5f"/>
    <path id="Path_3124" data-name="Path 3124" d="M516.862,70.818a26.333,26.333,0,1,1-26.333-26.333,26.333,26.333,0,0,1,26.333,26.333" transform="translate(-277.216 -13.213)" fill="#641859"/>
    <path id="Path_3125" data-name="Path 3125" d="M511.255,89,503.2,62.055l13.085-3.913q16.591-4.964,20.4,7.773,4.25,14.207-12.341,19.169Zm11.553-11.815q7.857-2.35,5.982-8.619-1.595-5.336-9.453-2.986l-5.209,1.559,3.472,11.6Z" transform="translate(-302.035 -21.018)" fill="#5f5f5f"/>
    <rect id="Rectangle_613" data-name="Rectangle 613" width="8.457" height="19.805" transform="translate(207.422 59.809) rotate(-16.654)" fill="#5f5f5f"/>
    <rect id="Rectangle_614" data-name="Rectangle 614" width="8.476" height="7.921" transform="translate(213.644 80.611) rotate(-16.66)" fill="#5f5f5f"/>
    <rect id="Rectangle_615" data-name="Rectangle 615" width="19.339" height="8.076" transform="translate(197.496 62.726) rotate(-16.649)" fill="#5f5f5f"/>
    <path id="Path_3126" data-name="Path 3126" d="M446.993,132.18l2.343,7.833-22.673,6.878-2.343-7.833Z" transform="translate(-251.84 -69.02)" fill="#5f5f5f"/>
    <rect id="Rectangle_616" data-name="Rectangle 616" width="8.457" height="19.805" transform="translate(207.795 58.482) rotate(-16.655)" fill="#fff"/>
    <rect id="Rectangle_617" data-name="Rectangle 617" width="8.475" height="7.921" transform="matrix(0.958, -0.287, 0.287, 0.958, 214.018, 79.284)" fill="#fff"/>
    <rect id="Rectangle_618" data-name="Rectangle 618" width="19.338" height="8.075" transform="matrix(0.958, -0.287, 0.287, 0.958, 197.87, 61.4)" fill="#fff"/>
    <path id="Path_3127" data-name="Path 3127" d="M448.484,128.869l2.343,7.833-22.62,6.878-2.343-7.833Z" transform="translate(-252.823 -66.913)" fill="#fff"/>
    <path id="Path_3128" data-name="Path 3128" d="M476.288,80.15l2.22,8.343-9.129,2.737-2.5-8.345Z" transform="translate(-278.926 -35.909)" fill="#5f5f5f"/>
    <rect id="Rectangle_619" data-name="Rectangle 619" width="12.124" height="12.125" transform="matrix(0.958, -0.287, 0.287, 0.958, 166.683, 50.196)" fill="#5f5f5f"/>
    <rect id="Rectangle_620" data-name="Rectangle 620" width="12.124" height="12.125" transform="matrix(0.958, -0.287, 0.287, 0.958, 167.385, 49.12)" fill="#641859"/>
    <rect id="Rectangle_621" data-name="Rectangle 621" width="6.833" height="6.833" transform="matrix(0.958, -0.287, 0.287, 0.958, 175.348, 35.882)" fill="#006fb9"/>
    <rect id="Rectangle_622" data-name="Rectangle 622" width="11.4" height="11.401" transform="translate(182.931 28.1) rotate(-16.653)" fill="#5f5f5f"/>
    <rect id="Rectangle_623" data-name="Rectangle 623" width="11.401" height="11.401" transform="translate(183.447 26.99) rotate(-16.657)" fill="#641859"/>
    <rect id="Rectangle_624" data-name="Rectangle 624" width="6.371" height="6.371" transform="matrix(0.958, -0.286, 0.286, 0.958, 165.882, 35.447)" fill="#5f5f5f"/>
    <rect id="Rectangle_625" data-name="Rectangle 625" width="6.372" height="6.372" transform="translate(166.254 34.452) rotate(-16.654)" fill="#006fb9"/>
    <path id="Path_3129" data-name="Path 3129" d="M477.777,76.42l2.5,8.345-9.353,2.711-2.5-8.345Z" transform="translate(-279.907 -33.536)" fill="#fff"/>
    <path id="Path_3130" data-name="Path 3130" d="M513.661,84.027,505.6,57.084l13.085-3.913q16.591-4.964,20.4,7.773,4.25,14.207-12.342,19.169Zm11.552-11.816q7.858-2.35,5.982-8.619-1.595-5.336-9.454-2.986l-5.208,1.559,3.472,11.6Z" transform="translate(-303.565 -17.855)" fill="#fff"/>
    <g id="Group_711" data-name="Group 711" transform="translate(29.512 29.033)">
      <path id="Path_3131" data-name="Path 3131" d="M31.153,76.91V43.171H44.365q16.751,0,16.752,15.949,0,17.79-16.752,17.79Zm13.212-5.426q10.5,0,10.5-12.363,0-10.522-10.5-10.522h-6.96V71.483Z" transform="translate(-31.153 -41.41)" fill="#231d61"/>
      <path id="Path_3132" data-name="Path 3132" d="M119.1,41.764v.371a3.555,3.555,0,0,1-3.662,3.437h0a3.555,3.555,0,0,1-3.662-3.437v-.371a3.555,3.555,0,0,1,3.662-3.437h0A3.555,3.555,0,0,1,119.1,41.764Zm-.536,7.29V73.827h-6.252V49.054Z" transform="translate(-82.456 -38.327)" fill="#231d61"/>
      <path id="Path_3133" data-name="Path 3133" d="M131.305,91.007v-5.19a25.53,25.53,0,0,0,9.532,1.652q4.034,0,4.035-2.6,0-2.477-2.714-2.477h-4.483q-7.55,0-7.55-7.432,0-7.786,11.018-7.786a26.951,26.951,0,0,1,8.8,1.416v5.191a23.917,23.917,0,0,0-8.965-1.652q-5.073,0-5.073,2.6,0,2.477,2.949,2.477h4.011q8.258,0,8.258,7.432,0,7.786-10.523,7.786A28.562,28.562,0,0,1,131.305,91.007Z" transform="translate(-94.136 -56.687)" fill="#231d61"/>
      <path id="Path_3134" data-name="Path 3134" d="M186.589,68.842a51.689,51.689,0,0,1,10.429-1.015q12.622,0,12.622,11.773,0,13-11.75,13a11.939,11.939,0,0,1-5.049-1.18v10.145h-6.252Zm6.252,17.294a10.332,10.332,0,0,0,5.025,1.274q5.592,0,5.592-7.857,0-6.676-6.181-6.677a24.82,24.82,0,0,0-4.436.33Z" transform="translate(-130.068 -57.1)" fill="#231d61"/>
      <path id="Path_3135" data-name="Path 3135" d="M255.92,43.171V76.91h-6.252V43.171Z" transform="translate(-170.209 -41.41)" fill="#231d61"/>
      <path id="Path_3136" data-name="Path 3136" d="M266.551,84.885q0-7.384,10.759-7.385a27.44,27.44,0,0,1,5.049.472V76.108q0-3.327-4.79-3.326a39.238,39.238,0,0,0-9.013,1.179V69.007a39.24,39.24,0,0,1,9.013-1.18q11.043,0,11.042,8.164V92.6h-3.633l-2.218-2.218a12.322,12.322,0,0,1-7.125,2.218Q266.551,92.6,266.551,84.885Zm10.759-3.138q-4.508,0-4.506,3.067,0,3.3,3.775,3.3a9.642,9.642,0,0,0,5.781-1.935V82.219A25.736,25.736,0,0,0,277.31,81.747Z" transform="translate(-180.953 -57.1)" fill="#231d61"/>
      <path id="Path_3137" data-name="Path 3137" d="M322.039,67.827h6.63l6.252,17.836,6.111-17.836h6.512l-10.287,25.5a17.351,17.351,0,0,1-8.754,9.6l-3.02-4.27a11.516,11.516,0,0,0,6.041-5.922Z" transform="translate(-216.264 -57.1)" fill="#231d61"/>
    </g>
    <g id="Group_713" data-name="Group 713" transform="translate(29.886 28.042)">
      <g id="Group_712" data-name="Group 712">
        <path id="Path_3138" data-name="Path 3138" d="M32.181,74.185V40.446H45.393q16.751,0,16.752,15.949,0,17.79-16.752,17.79Zm13.212-5.426q10.5,0,10.5-12.363,0-10.522-10.5-10.522h-6.96V68.758Z" transform="translate(-32.181 -38.685)" fill="#641859"/>
        <path id="Path_3139" data-name="Path 3139" d="M121.374,39.039v.371a3.555,3.555,0,0,1-3.662,3.437h0a3.555,3.555,0,0,1-3.662-3.437v-.371a3.555,3.555,0,0,1,3.662-3.437h0A3.555,3.555,0,0,1,121.374,39.039Zm-.536,7.29V71.1h-6.252V46.329Z" transform="translate(-84.28 -35.602)" fill="#641859"/>
        <path id="Path_3140" data-name="Path 3140" d="M133.584,88.282v-5.19a25.529,25.529,0,0,0,9.531,1.652q4.034,0,4.035-2.6,0-2.477-2.714-2.477h-4.482q-7.551,0-7.55-7.432,0-7.786,11.018-7.786a26.953,26.953,0,0,1,8.8,1.416v5.19a23.926,23.926,0,0,0-8.965-1.652q-5.073,0-5.073,2.6,0,2.477,2.949,2.477h4.011q8.258,0,8.257,7.432,0,7.786-10.523,7.786A28.557,28.557,0,0,1,133.584,88.282Z" transform="translate(-95.96 -53.962)" fill="#641859"/>
      </g>
    </g>
    <path id="Path_3141" data-name="Path 3141" d="M188.878,66a51.659,51.659,0,0,1,10.429-1.015q12.621,0,12.622,11.774,0,13-11.75,13a11.939,11.939,0,0,1-5.049-1.18V98.725h-6.252Zm6.252,17.294a10.331,10.331,0,0,0,5.025,1.274q5.592,0,5.592-7.857,0-6.677-6.181-6.677a24.814,24.814,0,0,0-4.436.33Z" transform="translate(-102.012 -26.259)" fill="#006fb9"/>
    <path id="Path_3142" data-name="Path 3142" d="M258.209,40.331V74.07h-6.252V40.331Z" transform="translate(-142.154 -10.57)" fill="#006fb9"/>
    <path id="Path_3143" data-name="Path 3143" d="M269.073,82.277q0-7.384,10.759-7.385a27.472,27.472,0,0,1,5.049.472V73.5q0-3.326-4.79-3.326a39.214,39.214,0,0,0-9.013,1.18V66.4a39.216,39.216,0,0,1,9.013-1.18q11.042,0,11.042,8.164v16.61H287.5l-2.218-2.218a12.323,12.323,0,0,1-7.125,2.218Q269.073,89.992,269.073,82.277Zm10.759-3.138q-4.507,0-4.506,3.067,0,3.3,3.775,3.3a9.645,9.645,0,0,0,5.781-1.935V79.611A25.765,25.765,0,0,0,279.832,79.14Z" transform="translate(-153.046 -26.407)" fill="#006fb9"/>
    <path id="Path_3144" data-name="Path 3144" d="M324.715,66.827h6.63L337.6,84.663l6.111-17.836h6.512l-10.287,25.5a17.349,17.349,0,0,1-8.753,9.6l-3.02-4.27a11.514,11.514,0,0,0,6.04-5.922Z" transform="translate(-188.455 -27.431)" fill="#006fb9"/>
    <line id="Line_78" data-name="Line 78" x2="81.321" transform="translate(28.575 76.152)" fill="#147099" stroke="#147099" stroke-linecap="round" stroke-linejoin="round" stroke-width="0.25"/>
    <line id="Line_79" data-name="Line 79" x2="81.321" transform="translate(108.256 85.145)" fill="#147099" stroke="#147099" stroke-linecap="round" stroke-linejoin="round" stroke-width="0.25"/>
    <text id="Adquiere_Niveles_Ilimitados" data-name="Adquiere Niveles Ilimitados" transform="translate(61.382 82.01)" fill="#147099" stroke="#147099" stroke-linecap="round" stroke-linejoin="round" stroke-width="0.25" font-size="5" font-family="Helvetica"><tspan x="0" y="0">Adquiere Niveles Ilimitados</tspan></text>
  </g>
</svg>
